ply
format ascii 1.0
comment Sample facial mesh for testing
comment This is a simplified face geometry
element vertex 27
property float x
property float y
property float z
property float nx
property float ny
property float nz
property uchar red
property uchar green
property uchar blue
element face 32
property list uchar int vertex_indices
end_header
0.0 0.0 1.0 0.0 0.0 1.0 255 220 185
-0.3 0.3 0.9 -0.2 0.2 0.96 255 220 185
0.3 0.3 0.9 0.2 0.2 0.96 255 220 185
-0.5 0.0 0.8 -0.4 0.0 0.92 255 220 185
0.5 0.0 0.8 0.4 0.0 0.92 255 220 185
-0.3 -0.3 0.9 -0.2 -0.2 0.96 255 220 185
0.3 -0.3 0.9 0.2 -0.2 0.96 255 220 185
0.0 -0.5 0.85 0.0 -0.3 0.95 255 220 185
-0.15 0.35 0.92 0.0 0.0 1.0 255 255 255
0.15 0.35 0.92 0.0 0.0 1.0 255 255 255
0.0 0.15 1.05 0.0 0.0 1.0 255 200 180
0.0 0.05 1.08 0.0 0.0 1.0 255 200 180
-0.08 -0.05 1.02 0.0 0.0 1.0 255 200 180
0.08 -0.05 1.02 0.0 0.0 1.0 255 200 180
-0.25 -0.15 0.95 0.0 0.0 1.0 255 150 150
0.25 -0.15 0.95 0.0 0.0 1.0 255 150 150
-0.15 -0.18 0.98 0.0 0.0 1.0 200 100 100
0.15 -0.18 0.98 0.0 0.0 1.0 200 100 100
0.0 -0.2 0.97 0.0 0.0 1.0 200 100 100
0.0 0.6 0.7 0.0 0.3 0.95 200 150 120
-0.4 0.5 0.6 -0.3 0.3 0.9 200 150 120
0.4 0.5 0.6 0.3 0.3 0.9 200 150 120
-0.6 0.2 0.5 -0.5 0.1 0.86 200 150 120
0.6 0.2 0.5 0.5 0.1 0.86 200 150 120
-0.55 -0.2 0.55 -0.4 -0.1 0.91 200 150 120
0.55 -0.2 0.55 0.4 -0.1 0.91 200 150 120
0.0 -0.7 0.6 0.0 -0.4 0.92 200 150 120
3 0 1 8
3 0 8 9
3 0 9 2
3 0 1 3
3 0 3 5
3 0 5 7
3 0 7 6
3 0 6 4
3 0 4 2
3 0 10 11
3 0 11 12
3 0 12 13
3 0 13 11
3 1 3 22
3 3 22 24
3 3 5 24
3 5 7 26
3 7 26 6
3 6 4 25
3 4 25 23
3 4 2 23
3 2 21 23
3 1 20 22
3 1 19 20
3 2 19 21
3 19 20 21
3 14 16 18
3 15 17 18
3 16 17 18
3 5 14 16
3 6 15 17
3 24 25 26
